<svg width="137" height="39" viewBox="0 0 137 39" fill="none" xmlns="http://www.w3.org/2000/svg">
<path d="M29.5511 7.3866C29.5246 7.19288 29.3559 7.08541 29.2159 7.07371C29.077 7.06201 26.3552 7.02051 26.3552 7.02051C26.3552 7.02051 24.0789 4.80259 23.8541 4.57697C23.6293 4.35135 23.1901 4.41946 23.0193 4.47054C23.0172 4.47161 22.5919 4.60358 21.8759 4.82601C21.756 4.43649 21.5799 3.95757 21.3285 3.47653C20.5182 1.92485 19.3313 1.10431 17.8972 1.10218C17.8951 1.10218 17.894 1.10218 17.8919 1.10218C17.7922 1.10218 17.6935 1.11176 17.5939 1.12027C17.5514 1.06919 17.509 1.01917 17.4644 0.970211C16.8397 0.299734 16.0389 -0.0269919 15.0789 0.00174293C13.2269 0.0549557 11.3824 1.39698 9.88681 3.78091C8.83459 5.45817 8.03374 7.56542 7.80677 9.1969C5.68005 9.85779 4.19295 10.3197 4.16007 10.3303C3.08664 10.6687 3.0527 10.7017 2.91268 11.7171C2.80874 12.4843 0 34.2761 0 34.2761L23.538 38.3607L33.7398 35.816C33.7398 35.816 29.5776 7.58032 29.5511 7.3866ZM20.6975 5.19211C20.1554 5.36026 19.5391 5.55183 18.8709 5.75936C18.8571 4.81856 18.7457 3.50953 18.3087 2.37822C19.7142 2.64535 20.4057 4.24067 20.6975 5.19211ZM17.6394 6.14249C16.4058 6.5256 15.0598 6.94385 13.7096 7.3632C14.0893 5.9041 14.8095 4.45139 15.6941 3.49888C16.0229 3.14449 16.4833 2.74965 17.0285 2.52402C17.5408 3.59679 17.6522 5.11548 17.6394 6.14249ZM15.116 1.2384C15.5509 1.22883 15.9169 1.32461 16.2298 1.53108C15.7291 1.79182 15.2454 2.16644 14.7915 2.65493C13.6151 3.92139 12.7135 5.88707 12.354 7.78357C11.2328 8.13156 10.136 8.47323 9.12624 8.78613C9.76377 5.80087 12.2574 1.32142 15.116 1.2384Z" fill="#95BF47"/>
<path d="M29.217 7.07467C29.0781 7.06297 26.3563 7.02147 26.3563 7.02147C26.3563 7.02147 24.0801 4.80355 23.8552 4.57793C23.7714 4.49385 23.6579 4.45022 23.5391 4.43213L23.5401 38.3595L33.7409 35.8159C33.7409 35.8159 29.5787 7.58128 29.5522 7.38756C29.5256 7.19384 29.356 7.08637 29.217 7.07467Z" fill="#5E8E3E"/>
<path d="M17.8831 12.3375L16.6984 16.7849C16.6984 16.7849 15.3767 16.1815 13.8101 16.2805C11.5126 16.4263 11.4882 17.8801 11.5115 18.2451C11.6367 20.2342 16.8521 20.6684 17.1449 25.3277C17.3751 28.993 15.207 31.5004 12.0832 31.6983C8.33365 31.9357 6.26953 29.7167 6.26953 29.7167L7.06401 26.326C7.06401 26.326 9.14189 27.899 10.8051 27.7936C11.8913 27.7244 12.2794 26.8379 12.2402 26.211C12.0769 23.6164 7.82981 23.7696 7.56148 19.5062C7.33552 15.9187 9.68396 12.2832 14.8654 11.9554C16.8617 11.8266 17.8831 12.3375 17.8831 12.3375Z" fill="white"/>
<path d="M47.1743 21.6503C46.0013 21.0117 45.3983 20.4734 45.3983 19.7334C45.3983 18.7918 46.2356 18.1869 47.5434 18.1869C49.0656 18.1869 50.4249 18.8256 50.4249 18.8256L51.4971 15.5301C51.4971 15.5301 50.5112 14.7563 47.6096 14.7563C43.5718 14.7563 40.7736 17.0765 40.7736 20.3382C40.7736 22.1876 42.0802 23.5999 43.8235 24.608C45.2311 25.4145 45.734 25.9866 45.734 26.8268C45.734 27.7009 45.0301 28.4071 43.7234 28.4071C41.7761 28.4071 39.937 27.3979 39.937 27.3979L38.7979 30.6934C38.7979 30.6934 40.4969 31.8366 43.3553 31.8366C47.5109 31.8366 50.4935 29.7856 50.4935 26.0869C50.4924 24.1045 48.9849 22.6921 47.1743 21.6503Z" fill="black"/>
<path d="M63.7293 14.724C61.685 14.724 60.0765 15.6993 58.8371 17.1782L58.7698 17.1444L60.5456 7.83105H55.9208L51.4307 31.5351H56.0555L57.5968 23.4325C58.1996 20.3724 59.7745 18.4903 61.2495 18.4903C62.2878 18.4903 62.6908 19.1964 62.6908 20.2056C62.6908 20.8442 62.6234 21.6179 62.4898 22.2566L60.7476 31.5362H65.3727L67.1817 21.9536C67.3831 20.9445 67.5175 19.7348 67.5175 18.9273C67.5156 16.3042 66.1418 14.724 63.7293 14.724Z" fill="black"/>
<path d="M77.9711 14.7236C72.4076 14.7236 68.7227 19.7672 68.7227 25.3818C68.7227 28.9792 70.9338 31.8705 75.0897 31.8705C80.5518 31.8705 84.2381 26.962 84.2381 21.2123C84.2381 17.884 82.2939 14.7236 77.9711 14.7236ZM75.6925 28.3078C74.1173 28.3078 73.4469 26.963 73.4469 25.2815C73.4469 22.6257 74.8214 18.2884 77.3345 18.2884C78.9766 18.2884 79.5119 19.7007 79.5119 21.0793C79.5119 23.9367 78.1393 28.3078 75.6925 28.3078Z" fill="black"/>
<path d="M96.0665 14.7236C92.9449 14.7236 91.1734 17.4808 91.1734 17.4808H91.1072L91.3754 14.9928H87.2871C87.0864 16.6743 86.7168 19.2288 86.3491 21.1458L83.1318 38.1247H87.7567L89.0292 31.2656H89.1305C89.1305 31.2656 90.0793 31.8705 91.845 31.8705C97.2734 31.8705 100.825 26.2896 100.825 20.6402C100.825 17.5146 99.4508 14.7236 96.0665 14.7236ZM91.643 28.3743C90.4425 28.3743 89.7321 27.7019 89.7321 27.7019L90.5031 23.3646C91.0396 20.4734 92.5472 18.5564 94.1562 18.5564C95.5638 18.5564 95.999 19.8675 95.999 21.112C95.999 24.1045 94.2231 28.3743 91.643 28.3743Z" fill="black"/>
<path d="M107.427 8.06641C105.953 8.06641 104.78 9.24338 104.78 10.756C104.78 12.1346 105.651 13.0762 106.958 13.0762H107.025C108.467 13.0762 109.706 12.1008 109.74 10.3866C109.74 9.04173 108.835 8.06641 107.427 8.06641Z" fill="black"/>
<path d="M100.961 31.5348H105.585L108.736 15.0942H104.077L100.961 31.5348Z" fill="black"/>
<path d="M120.497 15.0604H117.279L117.446 14.2867C117.715 12.7065 118.653 11.2941 120.195 11.2941C121.017 11.2941 121.668 11.5295 121.668 11.5295L122.573 7.89835C122.573 7.89835 121.769 7.49512 120.06 7.49512C118.417 7.49512 116.777 7.96587 115.536 9.0415C113.961 10.3864 113.224 12.336 112.855 14.2867L112.722 15.0604H110.577L109.906 18.5576H112.052L109.605 31.5359H114.23L116.677 18.5576H119.86L120.497 15.0604Z" fill="black"/>
<path d="M131.622 15.0943C131.622 15.0943 128.731 22.4021 127.433 26.3911H127.366C127.278 25.1065 126.226 15.0943 126.226 15.0943H121.367L124.15 30.1901C124.217 30.5258 124.183 30.7285 124.049 30.9638C123.512 32.0057 122.607 33.0148 121.535 33.7548C120.664 34.3934 119.692 34.7966 118.922 35.0658L120.195 38.9999C121.134 38.7984 123.076 38.0246 124.719 36.4782C126.83 34.4947 128.773 31.4346 130.784 27.2651L136.447 15.0933H131.622V15.0943Z" fill="black"/>
</svg>
