<svg width="202" height="41" viewBox="0 0 202 41" fill="none" xmlns="http://www.w3.org/2000/svg">
<path fill-rule="evenodd" clip-rule="evenodd" d="M0.537786 4.67784C1.47891 2.46303 3.83172 0.876308 6.28537 0.876308C24.8054 0.876308 43.3254 0.876308 61.879 0.876308C63.4923 0.843251 65.1057 1.43828 66.2821 2.4961C67.6266 3.68614 68.3996 5.4712 68.366 7.25627C68.366 14.2312 68.366 21.2062 68.366 28.2143C68.3324 31.3547 65.5427 34.1975 62.3495 34.2636C55.5936 34.2967 48.8377 34.2636 42.0817 34.2636C42.9893 36.4784 43.8968 38.6602 44.8043 40.875C40.7709 38.6933 36.8047 36.4454 32.7377 34.2967C23.8642 34.2306 14.9572 34.2967 6.05009 34.2636C2.85699 34.1645 0.0672234 31.3547 0.0336117 28.2143C1.27717e-07 21.3715 0.0336116 14.5288 0 7.71906C0 6.6943 0.100835 5.63648 0.537786 4.67784Z" fill="#7F54B3"/>
<path fill-rule="evenodd" clip-rule="evenodd" d="M27.6998 5.17346C28.7082 4.11564 30.6577 4.44621 31.4307 5.66931C31.8341 6.29739 31.8677 7.15687 31.5316 7.818C30.1199 10.5948 29.5149 13.6691 28.9771 16.6772C28.3385 20.611 27.8007 24.6109 28.0024 28.6107C28.0696 29.6355 27.5654 30.8586 26.4562 31.123C25.4143 31.3544 24.4395 30.6602 23.7673 29.933C20.7422 26.7265 19.0281 22.5944 17.7844 18.4623C16.5408 20.8754 15.2972 23.3216 14.0871 25.7348C13.2469 27.3876 12.3393 29.0735 10.9949 30.3958C10.4235 30.9578 9.44874 31.4536 8.70929 30.8916C7.6001 29.933 7.33121 28.4124 6.86065 27.1232C5.07923 21.0738 4.07088 14.826 3.02892 8.61137C2.79364 7.58661 3.23059 6.33045 4.27255 5.93377C5.11284 5.63626 6.22203 5.57014 6.92787 6.19822C7.43204 6.62796 7.56649 7.32216 7.66733 7.95024C8.40678 12.7765 9.24707 17.5698 10.4571 22.2969C12.4738 18.5284 14.4905 14.7599 16.5072 10.9584C16.8097 10.3964 17.1794 9.83447 17.7172 9.5039C18.4567 9.04111 19.5322 9.07417 20.1708 9.7353C20.675 10.2642 20.8767 11.0245 21.0111 11.7187C21.6161 14.826 22.4228 17.9334 23.5992 20.8754C24.1034 16.4128 24.742 11.884 26.389 7.68578C26.7587 6.79325 27.0948 5.90071 27.6998 5.17346ZM39.0942 7.58661C41.2789 7.32216 43.6318 8.0494 45.1107 9.66918C46.3207 11.0245 46.9929 12.7765 47.2282 14.5285C47.5979 17.5367 47.0265 20.7101 45.5476 23.3877C44.7073 24.9084 43.6318 26.3959 42.0856 27.2885C39.8336 28.6438 36.8086 28.4785 34.6238 27.057C32.876 25.867 31.9013 23.8836 31.498 21.9002C30.6913 17.3714 32.0694 12.3468 35.5314 9.20639C36.5397 8.31386 37.7833 7.7519 39.0942 7.58661ZM39.5311 12.2146C38.4892 12.5451 37.8169 13.5038 37.2455 14.3633C35.8339 16.6111 35.4305 19.5532 36.5733 21.9663C36.8758 22.5944 37.3464 23.2886 38.1194 23.4208C38.9261 23.553 39.6656 23.0902 40.237 22.5944C41.5142 21.5035 42.1528 19.8837 42.489 18.2639C42.8251 16.4458 42.657 14.4294 41.5814 12.8426C41.1445 12.2476 40.2706 11.9832 39.5311 12.2146ZM56.5386 7.58661C58.6561 7.32216 60.9753 7.98329 62.4543 9.53696C63.7987 10.9584 64.5046 12.8426 64.7062 14.7599C65.0087 17.6689 64.471 20.7102 63.0593 23.2886C62.219 24.8422 61.1098 26.3629 59.4964 27.2885C57.3453 28.5777 54.4547 28.4454 52.3035 27.1893C50.8582 26.3298 49.8835 24.8753 49.3121 23.3216C47.7996 18.5945 49.0768 13.041 52.5724 9.47084C53.7152 8.47914 55.0933 7.7519 56.5386 7.58661ZM57.0092 12.2146C55.8664 12.6112 55.1941 13.7021 54.5891 14.6608C53.3119 16.8756 52.9758 19.7515 54.1522 22.0985C54.4547 22.7597 55.0261 23.3877 55.7992 23.4208C56.6394 23.4539 57.3789 22.925 57.9839 22.363C59.2948 21.1068 59.8662 19.3218 60.0678 17.5698C60.2695 15.95 60.0006 14.198 59.0259 12.8096C58.6225 12.2476 57.7486 11.9832 57.0092 12.2146Z" fill="white"/>
<path fill-rule="evenodd" clip-rule="evenodd" d="M79.8617 8.21582C81.7103 7.81914 83.6598 7.8522 85.5085 8.28194C85.5085 9.7695 85.5085 11.2571 85.5085 12.7446C83.9959 12.381 82.2817 12.0504 80.8364 12.7446C79.0886 13.6041 78.1139 15.5544 78.1139 17.4056C78.0131 19.2568 78.6517 21.3394 80.3323 22.3972C81.8784 23.3889 83.8615 23.1905 85.5421 22.7277C85.5421 24.2153 85.5421 25.7029 85.5421 27.1904C83.2901 27.8185 80.8364 27.7524 78.6517 26.959C76.03 26.0004 73.9461 23.7525 73.1394 21.108C72.5344 19.0915 72.4672 16.9428 72.9377 14.8933C73.7108 11.6207 76.5342 8.94307 79.8617 8.21582ZM93.508 7.98442C95.7936 7.71997 98.2809 8.08359 100.13 9.50504C101.911 10.8604 102.785 13.0752 103.121 15.1908C103.423 17.5378 103.356 19.984 102.617 22.2319C101.978 24.1492 100.667 25.9342 98.785 26.8268C96.8692 27.7193 94.6172 27.7854 92.5669 27.3226C90.6846 26.8929 89.0041 25.6698 88.0629 23.9839C86.7521 21.736 86.5168 19.0584 86.6176 16.5131C86.7185 14.3313 87.2899 12.0504 88.7688 10.3645C89.9788 9.00919 91.7266 8.18276 93.508 7.98442ZM94.2139 12.2488C93.2391 12.4802 92.6677 13.4388 92.4325 14.3313C91.9619 16.1164 92.0291 17.9676 92.1636 19.7857C92.298 20.7774 92.3988 21.8352 93.1047 22.6286C94.0458 23.6864 95.9617 23.5542 96.802 22.4633C97.3734 21.7691 97.5414 20.8766 97.6423 20.0171C97.8439 18.4965 97.8775 16.9428 97.6423 15.4222C97.4742 14.4966 97.2053 13.538 96.5331 12.8438C95.9281 12.2487 95.0205 12.0504 94.2139 12.2488ZM183.856 8.28194C185.806 7.78609 187.856 7.8522 189.805 8.24888C189.839 9.73644 189.805 11.224 189.839 12.7446C188.36 12.381 186.713 12.0504 185.268 12.6785C183.587 13.4388 182.579 15.1908 182.444 16.9428C182.243 18.9262 182.78 21.1741 184.562 22.3311C186.108 23.3889 188.125 23.1905 189.839 22.6947C189.805 24.1822 189.873 25.7029 189.805 27.1904C187.419 27.7854 184.797 27.7193 182.545 26.7607C180.058 25.7029 178.108 23.455 177.403 20.8766C176.865 18.8932 176.798 16.7775 177.302 14.7611C178.041 11.6537 180.697 9.10836 183.856 8.28194ZM106.112 8.41417C108.264 8.41417 110.448 8.41417 112.599 8.41417C113.372 11.8521 114.112 15.323 114.784 18.794C115.389 15.29 116.229 11.8521 117.07 8.41417C119.288 8.41417 121.506 8.41417 123.725 8.41417C124.599 14.6619 125.439 20.9096 126.279 27.1243C124.599 27.1243 122.885 27.1243 121.204 27.1243C120.733 22.86 120.33 18.5626 119.826 14.2983C118.784 18.5626 117.708 22.86 116.666 27.1243C115.524 27.1243 114.347 27.1243 113.204 27.1243C112.095 22.86 111.02 18.5626 109.877 14.2652C109.44 18.5295 109.003 22.8269 108.566 27.1243C106.953 27.1243 105.339 27.1243 103.692 27.1243C104.499 20.9096 105.306 14.6619 106.112 8.41417ZM129.372 8.41417C131.523 8.41417 133.708 8.41417 135.859 8.41417C136.632 11.8521 137.371 15.323 138.043 18.794C138.682 15.323 139.489 11.8521 140.329 8.41417H146.95C147.824 14.6619 148.665 20.9096 149.505 27.1243C147.824 27.1243 146.11 27.1243 144.43 27.1243C143.959 22.86 143.522 18.5626 143.052 14.2983C142.01 18.5626 140.968 22.86 139.892 27.1243C138.749 27.1243 137.573 27.1243 136.43 27.1243C135.321 22.8269 134.212 18.5626 133.103 14.2652C132.666 18.5626 132.229 22.8269 131.792 27.1243C130.178 27.1243 128.565 27.1243 126.918 27.1243C127.758 20.9096 128.565 14.6619 129.372 8.41417ZM150.984 8.48027C154.446 8.41416 157.941 8.48028 161.403 8.44723C161.403 9.7695 161.403 11.0918 161.403 12.4471C159.656 12.4801 157.908 12.4471 156.16 12.4471C156.16 13.6041 156.16 14.728 156.16 15.885C157.673 15.885 159.185 15.885 160.698 15.885C160.698 17.1742 160.698 18.4634 160.698 19.7526C159.185 19.7526 157.673 19.7526 156.16 19.7526C156.16 20.8766 156.16 22.0335 156.16 23.1905C157.908 23.1905 159.689 23.1905 161.437 23.1905C161.437 24.5128 161.437 25.8351 161.437 27.1904C157.975 27.1904 154.479 27.1904 151.017 27.1904C150.984 20.9427 151.051 14.728 150.984 8.48027ZM162.882 8.41417C165.067 8.41417 167.218 8.38111 169.403 8.41417C171.453 8.48028 173.638 8.97613 175.151 10.3976C176.529 11.6537 176.999 13.7363 176.461 15.4883C176.025 16.9098 174.949 18.0667 173.604 18.6948C174.949 21.5046 176.327 24.3145 177.705 27.1243C175.89 27.1243 174.075 27.1243 172.294 27.1243C170.882 24.2484 169.504 21.3724 168.059 18.5295C168.025 21.4055 168.059 24.2814 168.059 27.1243C166.344 27.1243 164.63 27.1243 162.916 27.1243C162.882 20.9096 162.882 14.6619 162.882 8.41417ZM168.025 12.0174C168.025 13.5049 168.025 14.9925 168.025 16.48C168.966 16.4139 169.974 16.3808 170.748 15.8189C171.655 15.1577 171.554 13.8024 170.983 12.9429C170.277 12.1165 169.033 12.1165 168.025 12.0174ZM191.284 8.44723C194.746 8.44723 198.208 8.44723 201.67 8.44723C201.67 9.7695 201.67 11.1248 201.67 12.4471C199.922 12.4471 198.141 12.4471 196.393 12.4471C196.393 13.6041 196.393 14.728 196.393 15.885C197.906 15.885 199.418 15.885 200.931 15.885C200.931 17.1742 200.931 18.4634 200.931 19.7526H196.393C196.393 20.9096 196.393 22.0335 196.393 23.1905C198.175 23.1905 199.922 23.1905 201.704 23.1905C201.704 24.5128 201.704 25.8351 201.704 27.1904C198.242 27.1904 194.746 27.1904 191.284 27.1904C191.251 20.9096 191.284 14.6619 191.284 8.44723Z" fill="black"/>
</svg>
